HIERARCHY
ROOT reference
{
  OFFSET 0 0 0
  CHANNELS 6 Xposition Yposition Zposition Zrotation Xrotation Yrotation
  JOINT Hips
  {
    OFFSET 20.4636 75.887 70.7747
    CHANNELS 6 Xposition Yposition Zposition Zrotation Xrotation Yrotation
    JOINT Spine
    {
      OFFSET 0 7.81434 0
      CHANNELS 6 Xposition Yposition Zposition Zrotation Xrotation Yrotation
      JOINT Spine1
      {
        OFFSET 0 23.3781 0
        CHANNELS 6 Xposition Yposition Zposition Zrotation Xrotation Yrotation
        JOINT Neck
        {
          OFFSET 0 23.2821 2.11656
          CHANNELS 6 Xposition Yposition Zposition Zrotation Xrotation Yrotation
          JOINT Head
          {
            OFFSET 0 13.3416 -1.90594
            CHANNELS 6 Xposition Yposition Zposition Zrotation Xrotation Yrotation
            End Site
            {
              OFFSET 0 23.8242 0
            }
          }
        }
        JOINT LeftShoulder
        {
          OFFSET 3.82472 21.4916 -0.175476
          CHANNELS 6 Xposition Yposition Zposition Zrotation Xrotation Yrotation
          JOINT LeftArm
          {
            OFFSET 10.8239 0 0
            CHANNELS 6 Xposition Yposition Zposition Zrotation Xrotation Yrotation
            JOINT LeftForeArm
            {
              OFFSET 28.5356 0 0
              CHANNELS 6 Xposition Yposition Zposition Zrotation Xrotation Yrotation
              JOINT LeftHand
              {
                OFFSET 24.5315 0 0
                CHANNELS 6 Xposition Yposition Zposition Zrotation Xrotation Yrotation
                End Site
                {
                  OFFSET 14.2945 0 0
                }
              }
            }
          }
        }
        JOINT RightShoulder
        {
          OFFSET -3.77033 21.4916 -0.175476
          CHANNELS 6 Xposition Yposition Zposition Zrotation Xrotation Yrotation
          JOINT RightArm
          {
            OFFSET -10.8239 0 0
            CHANNELS 6 Xposition Yposition Zposition Zrotation Xrotation Yrotation
            JOINT RightForeArm
            {
              OFFSET -28.5356 0 0
              CHANNELS 6 Xposition Yposition Zposition Zrotation Xrotation Yrotation
              JOINT RightHand
              {
                OFFSET -24.5315 0 0
                CHANNELS 6 Xposition Yposition Zposition Zrotation Xrotation Yrotation
                End Site
                {
                  OFFSET -14.2945 0 0
                }
              }
            }
          }
        }
      }
    }
    JOINT LeftUpLeg
    {
      OFFSET 9.52968 0 0
      CHANNELS 6 Xposition Yposition Zposition Zrotation Xrotation Yrotation
      JOINT LeftLeg
      {
        OFFSET 0 -40.1884 0
        CHANNELS 6 Xposition Yposition Zposition Zrotation Xrotation Yrotation
        JOINT LeftFoot
        {
          OFFSET 0 -39.9954 0
          CHANNELS 6 Xposition Yposition Zposition Zrotation Xrotation Yrotation
          JOINT LeftToeBase
          {
            OFFSET 0 -6.19429 14.2945
            CHANNELS 6 Xposition Yposition Zposition Zrotation Xrotation Yrotation
            End Site
            {
              OFFSET 0 0 3.81187
            }
          }
        }
      }
    }
    JOINT RightUpLeg
    {
      OFFSET -9.52968 0 0
      CHANNELS 6 Xposition Yposition Zposition Zrotation Xrotation Yrotation
      JOINT RightLeg
      {
        OFFSET 0 -40.1884 0
        CHANNELS 6 Xposition Yposition Zposition Zrotation Xrotation Yrotation
        JOINT RightFoot
        {
          OFFSET 0 -39.9954 0
          CHANNELS 6 Xposition Yposition Zposition Zrotation Xrotation Yrotation
          JOINT RightToeBase
          {
            OFFSET 0 -6.19429 14.2945
            CHANNELS 6 Xposition Yposition Zposition Zrotation Xrotation Yrotation
            End Site
            {
              OFFSET 0 0 3.81187
            }
          }
        }
      }
    }
  }
}
MOTION
Frames:	9
Frame Time:	0.004
0 0 0 0 0 -0 -2.78571 80.8334 -199.762 0.141784 1.44752 0.509521 0 7.81434 2.84217e-014 -1.37019 -2.08723 -0.432953 0 23.3781 2.84217e-014 -0.40924 -4.64146 -0.426604 0 23.2821 2.11656 0.143667 22.8067 -0.246366 -8.88178e-016 13.3416 -1.90594 0.186595 -11.3088 -0.202974 3.82472 21.4916 -0.175476 19.1228 -1.99954 6.32416 10.8239 0 0 -17.0803 -2.22817 5.86484 28.5356 0 0 3.38466 4.17815 2.20775 24.5315 0 0 8.79473 4.496 5.04805 -3.77033 21.4916 -0.175476 -16.5699 -3.33249 5.75675 -10.8239 2.84217e-014 0 11.2014 -4.99676 -8.08739 -28.5356 2.84217e-014 2.84217e-014 0.179118 7.93756 -2.49851 -24.5315 0 0 -4.43765 7.94865 -0.189037 9.52968 -1.42109e-014 0 1.29474 6.52996 -1.78983 0 -40.1884 0 -5.18477 -6.06728 -3.60887 0 -39.9954 0 7.02675 -9.35675 5.5526 0 -6.19429 14.2945 -6.70898e-016 -1.59028e-015 -0 -9.52968 0 0 -1.59964 1.77166 5.32334 -1.77636e-015 -40.1884 0 2.96708 0.219102 1.84681 -3.55271e-015 -39.9954 0 -8.6151 -12.6461 0.937251 3.55271e-015 -6.19429 14.2945 -7.95139e-016 1.59028e-015 -1.59028e-015 
0 0 0 0 0 -0 -2.78015 80.8334 -199.762 0.133453 1.42615 0.492327 0 7.81434 2.84217e-014 -1.36152 -2.08431 -0.432953 0 23.3781 0 -0.407057 -4.60905 -0.426585 0 23.2821 2.11656 0.131212 22.8067 -0.246366 0 13.3416 -1.90594 0.186523 -11.3289 -0.202988 3.82472 21.4916 -0.175476 19.1232 -1.9995 6.33531 10.8239 0 0 -17.0882 -2.24527 5.85261 28.5356 0 -2.84217e-014 3.38215 4.18933 2.23616 24.5315 2.84217e-014 2.84217e-014 8.66135 4.49674 4.93947 -3.77033 21.4916 -0.175476 -16.5465 -3.33175 5.78106 -10.8239 0 2.84217e-014 11.2054 -4.9557 -8.08688 -28.5356 -2.84217e-014 0 0.176202 7.89736 -2.48995 -24.5315 5.68434e-014 2.84217e-014 -4.4482 7.90764 -0.173442 9.52968 0 2.84217e-014 1.30105 6.5604 -1.77093 0 -40.1884 2.84217e-014 -5.19135 -6.07461 -3.62177 -1.77636e-015 -39.9954 0 7.05045 -9.36426 5.56674 0 -6.19429 14.2945 -8.44835e-016 4.77083e-015 -1.98785e-016 -9.52968 -1.42109e-014 0 -1.59519 1.79295 5.35243 -5.32907e-015 -40.1884 2.84217e-014 2.96505 0.218372 1.83304 -1.77636e-015 -39.9954 2.84217e-014 -8.61478 -12.6461 0.9387 0 -6.19429 14.2945 -5.96354e-016 3.18055e-015 -1.59028e-015 
0 0 0 0 0 -0 -2.75937 80.8334 -199.762 0.155017 1.45744 0.47515 -2.22045e-016 7.81434 0 -1.34463 -2.12144 -0.432963 0 23.3781 0 -0.458012 -4.60246 -0.426581 0 23.2821 2.11656 0.152298 22.8067 -0.244127 0 13.3416 -1.90594 0.174536 -11.3162 -0.202979 3.82472 21.4916 -0.175476 19.1394 -1.99487 6.32864 10.8239 -2.84217e-014 0 -17.1017 -2.24776 5.8627 28.5356 2.84217e-014 0 3.38141 4.18551 2.23116 24.5315 2.84217e-014 -2.84217e-014 8.64304 4.49323 4.9522 -3.77033 21.4916 -0.175476 -16.5151 -3.31573 5.79654 -10.8239 0 -2.84217e-014 11.1944 -4.95506 -8.08687 -28.5356 -2.84217e-014 0 0.175423 7.88498 -2.48816 -24.5315 0 0 -4.44896 7.89581 -0.184962 9.52968 2.84217e-014 0 1.25244 6.5306 -1.81396 0 -40.1884 2.84217e-014 -5.1654 -6.08577 -3.55571 0 -39.9954 0 7.03845 -9.33001 5.56702 -1.77636e-015 -6.19429 14.2945 -2.98177e-016 1.59028e-015 -1.98785e-016 -9.52968 1.42109e-014 -2.84217e-014 -1.64516 1.74476 5.33912 -1.77636e-015 -40.1884 -2.84217e-014 2.9925 0.239056 1.88065 -1.77636e-015 -39.9954 2.84217e-014 -8.62163 -12.6462 0.923961 -3.55271e-015 -6.19429 14.2945 1.39149e-015 -1.59028e-015 -1.59028e-015 
0 0 0 0 0 -0 -2.77529 80.8334 -199.762 0.129774 1.42801 0.48568 0 7.81434 0 -1.349 -2.09297 -0.442774 8.88178e-016 23.3781 -2.84217e-014 -0.43288 -4.59695 -0.435692 -1.77636e-015 23.2821 2.11656 0.142485 22.8067 -0.241106 8.88178e-016 13.3416 -1.90594 0.188522 -11.3279 -0.201334 3.82472 21.4916 -0.175476 19.1329 -1.97964 6.34123 10.8239 0 0 -17.1146 -2.21834 5.84775 28.5356 0 2.84217e-014 3.39751 4.16915 2.23205 24.5315 0 0 8.60182 4.47653 4.97763 -3.77033 21.4916 -0.175476 -16.5068 -3.31749 5.81695 -10.8239 -2.84217e-014 0 11.2018 -4.95903 -8.08692 -28.5356 -2.84217e-014 2.84217e-014 0.174423 7.87983 -2.4825 -24.5315 0 0 -4.4906 7.89054 -0.179174 9.52968 1.42109e-014 0 1.31047 6.55302 -1.772 -8.88178e-016 -40.1884 2.84217e-014 -5.21139 -6.0627 -3.63919 0 -39.9954 2.84217e-014 7.07917 -9.38222 5.58976 0 -6.19429 14.2945 1.49089e-016 -3.18055e-015 -0 -9.52968 0 0 -1.5965 1.78019 5.34065 -1.77636e-015 -40.1884 2.84217e-014 2.96691 0.233824 1.86144 -1.77636e-015 -39.9954 0 -8.59821 -12.6448 0.935821 0 -6.19429 14.2945 -3.97569e-016 1.59028e-015 -0 
0 0 0 0 0 -0 -2.75469 80.8334 -199.763 0.152667 1.45337 0.461973 2.22045e-016 7.81434 -2.84217e-014 -1.33783 -2.12657 -0.432417 0 23.3781 0 -0.467145 -4.58339 -0.426433 -8.88178e-016 23.2821 2.11656 0.134955 22.8033 -0.237988 0 13.3416 -1.90594 0.201396 -11.3316 -0.192565 3.82472 21.4916 -0.175476 19.1349 -2.00083 6.34197 10.8239 2.84217e-014 0 -17.1142 -2.23798 5.85361 28.5356 -2.84217e-014 0 3.39281 4.18669 2.23449 24.5315 0 -2.84217e-014 8.59199 4.49404 4.98068 -3.77033 21.4916 -0.175476 -16.4972 -3.31443 5.82352 -10.8239 -2.84217e-014 2.84217e-014 11.2137 -4.9244 -8.0865 -28.5356 -2.84217e-014 0 0.160374 7.85379 -2.47713 -24.5315 2.84217e-014 0 -4.47573 7.86391 -0.172759 9.52968 0 0 1.25822 6.53507 -1.81059 0 -40.1884 0 -5.17959 -6.08616 -3.56852 0 -39.9954 0 7.05989 -9.33369 5.57695 0 -6.19429 14.2945 4.47266e-016 3.18055e-015 -3.97569e-016 -9.52968 0 0 -1.64742 1.74228 5.34418 -1.77636e-015 -40.1884 0 2.99773 0.247472 1.88004 3.55271e-015 -39.9954 0 -8.57115 -12.6443 0.91837 -3.55271e-015 -6.19429 14.2945 -3.97569e-016 0 -1.59028e-015 
0 0 0 0 0 -0 -2.75235 80.8334 -199.764 0.150737 1.44508 0.461172 2.22045e-016 7.81434 -2.84217e-014 -1.33376 -2.12092 -0.433713 8.88178e-016 23.3781 0 -0.47204 -4.58344 -0.428098 8.88178e-016 23.2821 2.11656 0.138994 22.8305 -0.235788 -8.88178e-016 13.3416 -1.90594 0.199583 -11.3648 -0.189203 3.82472 21.4916 -0.175476 19.1344 -1.9971 6.32946 10.8239 0 0 -17.1249 -2.20967 5.86518 28.5356 0 0 3.39333 4.17079 2.23689 24.5315 0 -2.84217e-014 8.56801 4.47708 4.9847 -3.77033 21.4916 -0.175476 -16.489 -3.29651 5.84648 -10.8239 0 2.84217e-014 11.2104 -4.9558 -8.08688 -28.5356 0 0 0.174295 7.86081 -2.47574 -24.5315 0 2.84217e-014 -4.51686 7.87055 -0.153636 9.52968 0 0 1.26055 6.53785 -1.8045 -8.88178e-016 -40.1884 -2.84217e-014 -5.18414 -6.07486 -3.56411 0 -39.9954 0 7.06308 -9.34743 5.56594 -1.77636e-015 -6.19429 14.2945 1.98785e-016 3.18055e-015 -0 -9.52968 0 0 -1.64708 1.75151 5.34671 0 -40.1884 0 2.99417 0.24486 1.8674 1.77636e-015 -39.9954 0 -8.59826 -12.6482 0.94259 0 -6.19429 14.2945 -4.41391e-032 1.59028e-015 1.59028e-015 
0 0 0 0 0 -0 -2.74856 80.8334 -199.765 0.151886 1.4464 0.444629 -2.22045e-016 7.81434 0 -1.33471 -2.12671 -0.435921 8.88178e-016 23.3781 0 -0.480852 -4.57392 -0.429952 -1.77636e-015 23.2821 2.11656 0.142192 22.8217 -0.234527 0 13.3416 -1.90594 0.187147 -11.3567 -0.196385 3.82472 21.4916 -0.175476 19.1361 -2.00636 6.33168 10.8239 0 -2.84217e-014 -17.1253 -2.21221 5.87123 28.5356 0 0 3.39395 4.16494 2.2404 24.5315 0 -2.84217e-014 8.50148 4.46879 4.98565 -3.77033 21.4916 -0.175476 -16.474 -3.30362 5.8492 -10.8239 0 2.84217e-014 11.2145 -4.94095 -8.07593 -28.5356 0 -2.84217e-014 0.144261 7.79677 -2.47428 -24.5315 -2.84217e-014 -2.84217e-014 -4.5007 7.80086 -0.025791 9.52968 1.42109e-014 0 1.2551 6.54451 -1.80996 -1.77636e-015 -40.1884 -2.84217e-014 -5.18042 -6.09039 -3.54013 0 -39.9954 0 7.04679 -9.34295 5.55242 1.77636e-015 -6.19429 14.2945 3.47873e-016 -1.59028e-015 1.98785e-016 -9.52968 1.42109e-014 2.84217e-014 -1.64845 1.73785 5.32259 5.32907e-015 -40.1884 0 2.98933 0.262812 1.89561 -3.55271e-015 -39.9954 2.84217e-014 -8.58569 -12.6543 0.957539 -3.55271e-015 -6.19429 14.2945 0 3.18055e-015 -0 
0 0 0 0 0 -0 -2.76313 80.8334 -199.766 0.128659 1.41613 0.456689 0 7.81434 0 -1.33426 -2.09875 -0.436087 0 23.3781 0 -0.455076 -4.56749 -0.429886 -8.88178e-016 23.2821 2.11656 0.12916 22.8262 -0.233674 0 13.3416 -1.90594 0.206745 -11.3689 -0.185051 3.82472 21.4916 -0.175476 19.137 -2.012 6.33241 10.8239 0 0 -17.1319 -2.20047 5.87195 28.5356 0 0 3.3946 4.15564 2.24776 24.5315 2.84217e-014 0 8.50311 4.45934 4.9865 -3.77033 21.4916 -0.175476 -16.4689 -3.29189 5.86353 -10.8239 -2.84217e-014 2.84217e-014 11.2128 -4.95788 -8.07738 -28.5356 0 0 0.144763 7.79947 -2.46887 -24.5315 0 -2.84217e-014 -4.48322 7.80321 -0.016681 9.52968 1.42109e-014 0 1.3092 6.5656 -1.77197 -8.88178e-016 -40.1884 0 -5.22228 -6.07382 -3.59852 0 -39.9954 2.84217e-014 7.08896 -9.37596 5.54983 0 -6.19429 14.2945 4.96962e-017 0 1.98785e-016 -9.52968 0 -2.84217e-014 -1.60341 1.78289 5.3489 0 -40.1884 0 2.96383 0.243303 1.87871 -1.77636e-015 -39.9954 0 -8.57255 -12.6587 0.931408 0 -6.19429 14.2945 -1.39149e-015 1.59028e-015 -0 
0 0 0 0 0 -0 -2.7443 80.8334 -199.767 0.148566 1.43406 0.431193 6.66134e-016 7.81434 2.84217e-014 -1.32354 -2.12157 -0.425193 8.88178e-016 23.3781 0 -0.482921 -4.55972 -0.420019 -8.88178e-016 23.2821 2.11656 0.133427 22.8261 -0.23303 0 13.3416 -1.90594 0.184308 -11.3702 -0.193275 3.82472 21.4916 -0.175476 19.1359 -2.00825 6.33022 10.8239 0 0 -17.134 -2.22591 5.87821 28.5356 2.84217e-014 0 3.395 4.15617 2.25027 24.5315 -2.84217e-014 0 8.47321 4.45835 4.98729 -3.77033 21.4916 -0.175476 -16.4618 -3.29349 5.87353 -10.8239 0 0 11.2165 -4.93894 -8.07208 -28.5356 2.84217e-014 0 0.15304 7.78741 -2.45337 -24.5315 2.84217e-014 -2.84217e-014 -4.51958 7.79411 -0.088061 9.52968 2.84217e-014 0 1.25993 6.55288 -1.7914 0 -40.1884 -2.84217e-014 -5.19074 -6.07859 -3.55603 1.77636e-015 -39.9954 2.84217e-014 7.07348 -9.34993 5.56121 0 -6.19429 14.2945 -1.49089e-016 0 -3.97569e-016 -9.52968 1.42109e-014 0 -1.65265 1.74753 5.34896 -1.77636e-015 -40.1884 0 2.99896 0.265564 1.8905 0 -39.9954 -2.84217e-014 -8.51454 -12.6478 0.941775 0 -6.19429 14.2945 -0 -3.18055e-015 -0 
